# xmcd
#
# Track frame offsets:
#	167
#	15727
#	33382
#	45982
#	64370
#	78605
#	96930
#	116230
#	138255
#	154532
#	179480
#	193877
#	210955
#	232402
#	238225
#	254075
#	275502
#
# Disc length: 3777 seconds
#
# Revision: 0
# Processed by: cddbd v1.5.1PL2 Copyright (c) Steve Scherf et al.
# Submitted via: audiograbber 1.83.01
#
DISCID=fe0ebf11
DTITLE=Henry Gray, Clarence Edwards and Short Fuse - Thibodeaux's Cafe
DYEAR=1994
DGENRE=Blues
TTITLE0=Cleo
TTITLE1=Early In The Morning
TTITLE2=Rock Me Baby
TTITLE3=Wang Dang Doodle
TTITLE4=I'm Gonna Keep What I Got
TTITLE5=When My First Wife Quit Me
TTITLE6=All Your Love
TTITLE7=Red Rooster 
TTITLE8=Mojo Boogie
TTITLE9=Aint No Use
TTITLE10=What Have I Done Wrong
TTITLE11=Rainin In My Heart
TTITLE12=Lonesome Bedroom Blues
TTITLE13=Ronnie's Intro
TTITLE14=It's A Sin
TTITLE15=It Hurts Me Too
TTITLE16=No Turn On Gray
EXTD=
EXTT0=
EXTT1=
EXTT2=
EXTT3=
EXTT4=
EXTT5=
EXTT6=
EXTT7=
EXTT8=
EXTT9=
EXTT10=
EXTT11=
EXTT12=
EXTT13=
EXTT14=
EXTT15=
EXTT16=
PLAYORDER=
